<?xml version="1.0" encoding="UTF-8"?>
<svg version="1.1" xmlns="http://www.w3.org/2000/svg" width="256" height="256">
<path d="M0 0 C0.70914551 0.22461914 1.41829102 0.44923828 2.14892578 0.68066406 C33.70227286 10.73733279 59.72518019 33.91984513 75.29614258 62.8984375 C79.92151014 71.89362746 83.24810336 81.28243474 86 91 C86.34160156 92.17820312 86.68320313 93.35640625 87.03515625 94.5703125 C94.56900248 126.45775468 88.18713706 162.47550464 71.359375 190.3046875 C53.07087643 219.39454807 25.82426745 238.70456551 -7 248 C-8.17820313 248.34160156 -9.35640625 248.68320313 -10.5703125 249.03515625 C-42.45775468 256.56900248 -78.47550464 250.18713706 -106.3046875 233.359375 C-135.39454807 215.07087643 -154.70456551 187.82426745 -164 155 C-164.34160156 153.82179687 -164.68320313 152.64359375 -165.03515625 151.4296875 C-172.56900248 119.54224532 -166.18713706 83.52449536 -149.359375 55.6953125 C-131.76178326 27.70441493 -106.19677441 9.09530656 -75 -1 C-73.76507813 -1.41507812 -72.53015625 -1.83015625 -71.2578125 -2.2578125 C-49.41948657 -8.7234828 -21.39550555 -7.25549006 0 0 Z " fill="#FEFEFE" transform="translate(167,5)"/>
<path d="M0 0 C1.8350088 -0.00270162 3.67001619 -0.00658958 5.50502014 -0.01159668 C9.33348343 -0.01746173 13.16157097 -0.00902715 16.98999023 0.00976562 C21.86278987 0.03253714 26.73470706 0.01942438 31.60747433 -0.00452423 C35.39195735 -0.01907758 39.17623613 -0.0143326 42.96072578 -0.00401306 C44.75581533 -0.00137118 46.55092429 -0.0045246 48.34599113 -0.01393127 C66.25393528 -0.0872 82.25093213 3.48302961 95.765625 16.12109375 C101.20850783 22.23814058 106.01644594 29.2644296 106.91015625 37.53125 C107.94140625 37.593125 108.97265625 37.655 110.03515625 37.71875 C115.1386129 38.78882962 117.9758606 40.80368275 121.05493164 45.14550781 C122.38122878 48.84535813 122.25600903 52.48773186 122.28125 56.390625 C122.29027847 57.25383362 122.29930695 58.11704224 122.30860901 59.00640869 C122.32310123 60.83203674 122.33199569 62.65771661 122.33569336 64.48339844 C122.34755713 67.25806815 122.39672255 70.03048907 122.44726562 72.8046875 C122.45673455 74.58332255 122.46396734 76.36197118 122.46875 78.140625 C122.48828232 78.96173767 122.50781464 79.78285034 122.52793884 80.62884521 C122.48190656 86.59191371 120.96993266 91.05451261 116.91015625 95.53125 C113.67069756 97.47842907 110.64312008 98.02220948 106.91015625 98.53125 C106.77480469 99.06492187 106.63945312 99.59859375 106.5 100.1484375 C102.78809606 112.99562597 93.79556891 122.76139451 82.32421875 129.2421875 C81.12925781 129.88027344 81.12925781 129.88027344 79.91015625 130.53125 C79.27851563 130.87414062 78.646875 131.21703125 77.99609375 131.5703125 C73.48495444 133.77438513 69.80844073 133.78905445 64.91015625 133.53125 C64.91015625 134.19125 64.91015625 134.85125 64.91015625 135.53125 C54.70401539 135.60110119 44.49793244 135.65423825 34.29160023 135.68668652 C29.55116579 135.70226874 24.81089623 135.72336915 20.07055664 135.75756836 C15.48639518 135.79042968 10.90239121 135.80815882 6.31812096 135.81588173 C4.57882907 135.82137761 2.83954471 135.83210807 1.10032082 135.84844017 C-17.60599572 136.01693774 -32.7116437 133.26138157 -46.79296875 119.96484375 C-52.91102759 113.48261474 -58.08984375 106.72036769 -58.08984375 97.53125 C-59.91515625 97.716875 -59.91515625 97.716875 -61.77734375 97.90625 C-65.643347 97.91993497 -65.9427272 97.67197017 -68.96484375 94.78125 C-69.66609375 93.70875 -70.36734375 92.63625 -71.08984375 91.53125 C-71.45746826 90.98839355 -71.82509277 90.44553711 -72.20385742 89.88623047 C-73.59591859 86.18608663 -73.39490231 82.52256045 -73.390625 78.6015625 C-73.39491013 77.73361053 -73.39919525 76.86565857 -73.40361023 75.97140503 C-73.40934632 74.13735831 -73.4098591 72.30328884 -73.40551758 70.46923828 C-73.40236277 67.67310432 -73.4258074 64.87803408 -73.45117188 62.08203125 C-73.45344556 60.29687633 -73.45414804 58.51171858 -73.453125 56.7265625 C-73.46233475 55.89512726 -73.47154449 55.06369202 -73.48103333 54.20706177 C-73.43199955 48.00803523 -72.22536782 43.7854143 -67.83984375 39.15625 C-64.39513077 37.12073779 -62.02453699 37.22264661 -58.08984375 37.53125 C-58.04859375 36.5825 -58.00734375 35.63375 -57.96484375 34.65625 C-56.33286223 23.84165246 -47.01732494 14.94372002 -38.64453125 8.7109375 C-26.24557476 0.77720007 -14.26039301 -0.07463088 0 0 Z " fill="#040404" transform="translate(103.08984375,59.46875)"/>
<path d="M0 0 C0.79465164 -0.00846954 1.58930328 -0.01693909 2.40803528 -0.02566528 C5.01128548 -0.04889049 7.61393959 -0.05006092 10.21728516 -0.04882812 C12.04277782 -0.05593855 13.86826828 -0.06363882 15.6937561 -0.07189941 C19.51155822 -0.08531107 23.32915365 -0.08692799 27.14697266 -0.08105469 C32.01803292 -0.07516232 36.8880952 -0.10574638 41.75896263 -0.14617157 C45.52702088 -0.17213283 49.2948415 -0.17491836 53.06297684 -0.17127991 C54.85777926 -0.17296333 56.65259358 -0.18253031 58.44730759 -0.20042419 C69.25285115 -0.29631193 78.3922309 -0.3466645 86.78427124 7.40979004 C93.63303052 14.3996547 93.94582587 21.78630751 93.96728516 31.13867188 C93.97727036 32.66373352 93.97727036 32.66373352 93.98745728 34.21960449 C93.99754533 36.36106567 94.00227549 38.50255805 94.00195312 40.64404297 C94.00633395 43.9097071 94.04271637 47.17402697 94.08056641 50.43945312 C94.08643393 52.52668812 94.09040375 54.61392948 94.09228516 56.70117188 C94.10665619 57.67115112 94.12102722 58.64113037 94.13583374 59.64050293 C94.08361252 67.43009705 91.9876091 72.45415404 86.44384766 78.10742188 C85.93466797 78.64753906 85.42548828 79.18765625 84.90087891 79.74414062 C75.74977455 86.50115227 66.07351812 86.02502165 55.16650391 85.98632812 C53.36485983 85.99157134 51.5632185 85.99785036 49.76158142 86.00511169 C45.99676541 86.01548467 42.2323281 86.01099942 38.4675293 85.99633789 C33.66483233 85.97915672 28.86333257 86.00265314 24.06076908 86.03782749 C20.34329947 86.05988482 16.62611265 86.05833992 12.90859795 86.05006218 C11.13892745 86.04924718 9.36923525 86.05602347 7.59962654 86.07083321 C-12.13291058 86.21068138 -12.13291058 86.21068138 -20.25889587 78.66456604 C-26.85330606 71.76163935 -27.8295222 64.70410479 -27.80224609 55.51757812 C-27.80748795 54.48104599 -27.8127298 53.44451385 -27.81813049 52.37657166 C-27.824532 50.19221896 -27.82323805 48.00783171 -27.81469727 45.82348633 C-27.80618778 42.49627829 -27.83497566 39.17078874 -27.86669922 35.84375 C-27.86831154 33.71419322 -27.86773311 31.58463342 -27.86474609 29.45507812 C-27.87598007 28.46838638 -27.88721405 27.48169464 -27.89878845 26.46510315 C-27.81983791 18.5725492 -25.80973534 12.28469156 -20.11865234 6.60742188 C-19.59787109 6.06472656 -19.07708984 5.52203125 -18.54052734 4.96289062 C-12.78732839 0.87563597 -6.84585155 -0.02742129 0 0 Z " fill="#F9F9F9" transform="translate(94.36865234375,84.580078125)"/>
<path d="M0 0 C5.23381292 2.54256252 9.0155758 5.43650274 12.125 10.375 C13.64338092 16.66543524 14.19670139 21.56896578 10.8125 27.3125 C8.15414961 31.10367015 5.16869778 33.91565111 1 36 C-4.31902836 36.66299504 -9.66590442 37.21387378 -14.53125 34.68359375 C-20.06002098 30.07284631 -22.63732152 25.26410633 -23.4375 18.0625 C-23.15277098 12.40077291 -21.17877661 8.08559064 -17.08203125 4.1640625 C-11.69585713 0.10298254 -6.66672733 -1.68700722 0 0 Z " fill="#050505" transform="translate(102,109)"/>
<path d="M0 0 C5.42612606 2.53557293 9.67838181 5.99571996 13 11 C14.28421994 17.43777789 13.87910027 23.49999693 10.375 29.125 C7.59282574 32.63491891 5.4130273 34.77415908 1 36 C-4.53637363 36.594817 -9.28269326 36.74937021 -14.4375 34.5 C-19.80163488 29.26669768 -22.30664137 25.15236999 -22.75 17.5 C-22.52539939 11.6331597 -21.09602575 8.53115778 -16.8515625 4.5234375 C-16.24054688 4.02070312 -15.62953125 3.51796875 -15 3 C-14.236875 2.34 -13.47375 1.68 -12.6875 1 C-8.38425295 -0.60120821 -4.51768888 -0.83114751 0 0 Z " fill="#060606" transform="translate(162,109)"/>
<path d="M0 0 C0 0.33 0 0.66 0 1 C-1.0725 1.2475 -2.145 1.495 -3.25 1.75 C-7.04588722 3.01529574 -8.39623817 4.1069313 -11 7 C-11.66 7 -12.32 7 -13 7 C-10.30332745 0.48304134 -6.81821784 -0.39335872 0 0 Z " fill="#494949" transform="translate(45,97)"/>
<path d="M0 0 C0.66 0.33 1.32 0.66 2 1 C-0.64 3.64 -3.28 6.28 -6 9 C-6.33 8.34 -6.66 7.68 -7 7 C-4.78071806 4.09197539 -3.07030857 2.04687238 0 0 Z " fill="#2F2F2F" transform="translate(88,111)"/>
</svg>
