<svg xmlns="http://www.w3.org/2000/svg" width="1254" height="1254" viewBox="0 0 1254 1254" version="1.1"><path d="M 617.500 97.663 C 610.582 101.801, 602.078 106.611, 516.500 154.790 C 481.850 174.298, 444.950 195.102, 434.500 201.022 C 348.879 249.524, 318.709 266.802, 313.719 270.191 C 276.372 295.553, 249.116 338.103, 240.755 384.097 C 238.565 396.140, 238.500 398.386, 238.500 461.500 C 238.500 520.758, 238.665 527.383, 240.370 536.500 C 248.234 578.561, 273.825 618.549, 310.500 646.084 C 315.450 649.801, 348.300 670.134, 383.500 691.268 C 418.700 712.403, 459.650 737.039, 474.500 746.014 C 544.514 788.330, 588.872 814.916, 592.729 816.873 C 603.396 822.286, 620.925 823.372, 632.987 819.366 C 636.485 818.204, 653.160 807.966, 678.987 791.124 C 701.269 776.594, 724.225 761.634, 730 757.881 C 742.516 749.747, 745.203 746.348, 745.816 737.872 C 746.327 730.805, 744.276 724.545, 740.232 720.830 C 738.730 719.450, 712.525 703.327, 682 685.003 C 498.150 574.634, 447.874 544.200, 442.622 540.096 C 434.806 533.990, 425.245 521.865, 420.254 511.730 C 407.419 485.668, 405.976 457.832, 416.181 433.176 C 424.568 412.911, 434.467 401.758, 455.500 388.874 C 463.200 384.158, 489.750 367.793, 514.500 352.508 C 594.575 303.056, 624.265 284.836, 625.612 284.319 C 627.076 283.757, 644.162 293.526, 733.500 346.001 C 747.250 354.077, 774.475 370.045, 794 381.485 C 841.403 409.258, 896.577 441.907, 972.745 487.256 C 997.898 502.232, 1013.574 510.994, 1014.547 510.620 C 1015.941 510.085, 1016.069 502.053, 1015.775 433.762 L 1015.446 357.500 1012.760 348.861 C 1007.485 331.900, 999.963 318.785, 988.064 305.808 C 971.978 288.262, 954.653 277.636, 818 201.496 C 793.525 187.859, 742.675 159.357, 705 138.158 C 667.325 116.959, 634.250 98.359, 631.500 96.825 C 628.750 95.291, 625.825 94.045, 625 94.056 C 624.175 94.066, 620.800 95.690, 617.500 97.663 M 616.658 422.447 C 607.815 424.990, 602.434 428.287, 510.322 487.595 C 501.306 493.401, 499.667 495.544, 499.667 501.526 C 499.667 507.449, 501.995 510.124, 512.792 516.602 C 518.131 519.806, 528.125 525.874, 535 530.087 C 541.875 534.300, 556.950 543.491, 568.500 550.512 C 580.050 557.533, 595.575 566.978, 603 571.500 C 610.425 576.023, 641.700 595.022, 672.500 613.721 C 775.928 676.514, 804.471 694.181, 809.704 698.641 C 816.713 704.615, 826.132 717.324, 830.994 727.370 C 847 760.438, 841.222 800.611, 816.724 826.581 C 812.447 831.115, 806.822 836.168, 804.224 837.811 C 776.599 855.272, 707.391 899.875, 634.590 947.136 C 629.690 950.318, 625.415 952.778, 625.090 952.603 C 623.390 951.688, 571.208 921.333, 557 912.994 C 547.925 907.668, 528.575 896.338, 514 887.817 C 436.824 842.696, 315.056 770.963, 270.259 744.229 C 252.167 733.433, 240.427 727.006, 239.468 727.374 C 238.082 727.906, 237.952 736.022, 238.243 803.734 C 238.565 878.716, 238.591 879.572, 240.782 886.500 C 243.816 896.090, 249.806 908.307, 256.066 917.670 C 262.506 927.303, 276.971 941.774, 287 948.618 C 291.125 951.432, 320.600 969.157, 352.500 988.006 C 422.254 1029.221, 447.696 1044.412, 550.728 1106.362 C 594.304 1132.563, 630.193 1154, 630.482 1154 C 630.771 1154, 643.268 1146.431, 658.254 1137.180 C 673.239 1127.930, 706.875 1107.164, 733 1091.034 C 787.631 1057.305, 834.591 1028.577, 891.500 994.070 C 945.054 961.597, 949.400 958.630, 962.597 945.522 C 989.096 919.203, 1004.865 890.057, 1012.204 853.834 C 1014.456 842.719, 1014.500 841.273, 1014.500 779 C 1014.500 716.840, 1014.453 715.286, 1012.252 705.352 C 1002.253 660.217, 974.313 618.818, 934.926 590.777 C 928.009 585.853, 870.522 551.238, 839.500 533.318 C 829.050 527.281, 811.950 517.380, 801.500 511.314 C 783.843 501.065, 747.109 479.960, 680 441.508 C 664.875 432.842, 650.025 424.859, 647 423.768 C 639.852 421.191, 623.504 420.479, 616.658 422.447" stroke="none" fill="#040404" fill-rule="evenodd"/></svg>