<svg version="1.2" xmlns="http://www.w3.org/2000/svg" viewBox="0 0 512 512" width="512" height="512">
	<style>
		.s0 { fill: #ffffff } 
		.s1 { fill: #000000 } 
	</style>
	<path id="Shape 1" fill-rule="evenodd" class="s0" d="m256 512c-141.57 0-256-114.43-256-256 0-141.57 114.43-256 256-256 141.57 0 256 114.43 256 256 0 141.57-114.43 256-256 256z"/>
	<path class="s1" d="m168.54 123.3h43.91 83.2c13.95-0.11 44.11-1.14 56.24 1.4 8.26 1.72 22.63 8.25 29.71 12.85 12.13 7.89 24.89 21.65 31.82 34.38 2.52 4.64 4.72 9.47 6.52 14.43l2.06 6.6c2.28 3.16 6.83 0.76 12.32 2.9 3.71 1.44 5.55 2.94 8.24 5.84 5.51 5.95 6.38 8.99 6.4 17.01v73.96c-0.01 3.31-0.02 5.98-1.12 9.17-1.67 4.86-8.35 11.48-13.08 13.42-5.92 2.44-10.12-0.24-12.82 3.71l-3.91 10.46c-2.58 6.34-6.27 12.67-10.09 18.38-13.4 20.06-35.09 33.73-58.36 39.1-5.93 1.37-8.39 2.05-14.64 2.06h-121.72-36.2c-16.41-0.03-32.82-7.01-46.45-15.67l-6.49-4.15c-11.07-8.76-21.3-20.96-27.53-33.66l-6.53-16.52c-2.6-3.8-6.43-1.45-12.16-3.46-4.8-1.68-11.58-8.27-13.48-12.96-1.21-2.98-1.36-5.95-1.38-9.11v-74.73c0.02-8.02 0.89-11.06 6.39-17.01 2.69-2.9 4.53-4.4 8.25-5.84 5.49-2.14 10.04 0.26 12.32-2.9l2.05-6.6c1.6-4.38 4.54-11.15 6.95-15.08l10.44-15.23 8.23-8.02c10.74-9.74 17.11-14.19 30.83-19.32l10.84-3.85zm10.78 49.26c-6.16 1.07-10.51 2.32-16.18 4.97-14.91 6.99-26.11 23.01-26.19 39.65v48.53c0 8.41-0.65 29.87 0.93 36.85 2.15 9.57 8.93 19.18 16.34 25.43 4.99 4.2 13.19 8.84 19.71 9.8l6.9 1.21c3.49 0.42 2.57 0.59 7.74 0.67h22.34 110.93c7.45-0.02 5.04-0.17 9.28-0.67 3.68-0.45 6.31-0.62 10.53-1.95 4.24-1.33 8.07-3.59 11.78-5.97 9.74-6.31 17.42-16.61 20.48-27.84 1.5-5.54 1.09-14.63 1.09-20.58v-33.9-30.81c-0.04-25.81-22.6-45.42-47.77-45.39h-97.06zm8.47 46.49c16.7-2.07 32.35 2.49 40.86 18.16 4.25 7.82 5.37 22.99 2.43 31.45-3.48 10.01-14.86 21.44-25.57 23.11-11.43 1.78-23.98 1.25-33.21-6.62-3.4-2.9-8.71-9.47-10.59-13.5-8.29-17.79-0.89-40.18 16.51-49.1 4.15-2.12 4.93-2.7 9.57-3.5zm120.95 0c15.9-1.97 29.68 1.84 38.83 15.86 9.79 15.02 7.2 34.67-5.04 47.42-4.45 4.64-10.43 8.34-16.84 9.46-16.64 2.91-31.64-1.17-41.19-15.91-5.16-7.97-5.14-14.15-5.04-23.27 0.2-16.93 12.78-30.7 29.28-33.56z"/>
</svg>